<svg xmlns="http://www.w3.org/2000/svg" viewBox="0 0 655 655"><defs><style>.cls-1,.cls-7{fill:#fff;}.cls-2,.cls-9{fill:none;}.cls-2{stroke:red;}.cls-2,.cls-7,.cls-8,.cls-9{stroke-miterlimit:10;stroke-width:4px;}.cls-3{fill:red;}.cls-4{fill:#f9e300;}.cls-5{fill:#007934;}.cls-6{fill:#d52b1e;}.cls-7,.cls-8,.cls-9{stroke:#000;}.cls-10{fill:#04508f;}</style></defs><title>LOGO umsa</title><g id="Capa_2" data-name="Capa 2"><g id="Capa_2-2" data-name="Capa 2"><path class="cls-1" d="M327.5,654.5A327,327,0,0,1,96.28,96.28,327,327,0,1,1,558.72,558.72,324.83,324.83,0,0,1,327.5,654.5Z"/><path d="M327.5,1A326.4,326.4,0,0,1,558.37,558.37a326.5,326.5,0,1,1-358-531.71A324.36,324.36,0,0,1,327.5,1m0-1C146.63,0,0,146.63,0,327.5S146.63,655,327.5,655,655,508.37,655,327.5,508.37,0,327.5,0Z"/><path class="cls-2" d="M165.36,574.55C84.44,521.49,31,430,31,326,31,162,164,29,328,29S625,162,625,326c0,104.69-54.16,196.73-136,249.62"/><path class="cls-2" d="M511.82,175.07A239.55,239.55,0,0,1,569,330.75"/><path class="cls-2" d="M88,330.75a239.57,239.57,0,0,1,57.18-155.68"/><path class="cls-2" d="M507,330.24a178.5,178.5,0,0,1-357,0"/><path class="cls-3" d="M329.5,210.65a114.67,114.67,0,1,1-81.09,33.59,113.93,113.93,0,0,1,81.09-33.59m0-4A118.68,118.68,0,1,0,448.17,325.33,118.67,118.67,0,0,0,329.5,206.65Z"/></g><g id="Capa_5" data-name="Capa 5"><path id="rect15" class="cls-4" d="M231.5,282.37a4.13,4.13,0,0,0,.68,1.2v.89c0,.47.5.62.3,1.11a.5.5,0,0,1-.37.22,11.09,11.09,0,0,0-2.51.27.69.69,0,0,0-.13.11,4.43,4.43,0,0,0-.32,1.43c0,.3.06.66.13,1s.42.67.22,1c0,0-.62.56-.74.64-.31.18-.69.23-1,.39s-.83,1.5-1.84,1.55l-.12.13s.14,1.57.14,1.6-1.08,0-1.24-.06c-.71-.13-.71.93-.76,1.33a6.14,6.14,0,0,0-.13,1.06,2,2,0,0,0,.17.63c.08.24,0,1-.3,1.09a5.44,5.44,0,0,0-1.54.44,4.7,4.7,0,0,0-.69.39c-.35.28,0,.36,0,.7s-.09.5-.09.75.48.43.25,1c-.17.39-.68.87-.52,1.35s.61.79.91,1.33c.09.16.1.41.18.59s.58.89.72,1.14c.3.56,1.62,1,2.09,1.44a2.87,2.87,0,0,0,.38.46c.21.21.29.59.52.76s.36.09.42.31a1,1,0,0,0,.07.56c-.29.51-.69.35-1.19.1a6.33,6.33,0,0,0-.52.67,6.55,6.55,0,0,1-.56.76c-.18.26-1-.18-.71.88l-.35.06s.1.79.19,1.13l-.52.06a3,3,0,0,0-.85,1.27c0,.05,0,.24,0,.28s-1.48,2.65-1.68,3c1,2.83,2.05,5.65,2.88,8.53a32.09,32.09,0,0,0,.93,3.22l1,.58a15.34,15.34,0,0,0,2,1.13,1.45,1.45,0,0,0,.51,0,6.83,6.83,0,0,0,.66-.37,3.42,3.42,0,0,0,.74.33s.67-.66,1-.62c.75.48.85.87,1.38,1.4s1,.68,1.38,1.1l.35.35a1.86,1.86,0,0,1,0,.62c-1.16.69-2.38,1.3-3.53,2a1.74,1.74,0,0,0-.1.19c-.3.91-.57,1.81-1,2.69a.52.52,0,0,0,.07.39c-.1.5.51,1.44.69,1.84l-.46.37c-.09.07-.79.3-.89.36l-1.21.61c-.18-.09-.67.07-.86.12-.61.13-.36,1.17-.56,1.55-.51.35-.45.7-.8,1a16.41,16.41,0,0,0-2,2.18s-.07.15-.09.19.18.25.15.35c-.31.44-.49.62-1,.58-.27.17-.43.66-.68.8l.49.66-.12.62c-.17.11-1,.76-1,.76s-.64-.25-.73-.17a5.82,5.82,0,0,1-1.32,1,1.51,1.51,0,0,0-.9.46,1.11,1.11,0,0,1-.43.92h-.29c-.27.11-.28.74-.35,1s-.53.35-.64.62a8.11,8.11,0,0,1,1,0,4.47,4.47,0,0,1,1.79,1.19c.35.29.72.56,1,.87,0,.46-.06.91-.06,1.37s.06,1.07.07,1.6a14.72,14.72,0,0,0,0,2.21,32.9,32.9,0,0,0,2.5,2.51c.28.55.11.63.24,1.13,0,.17.34.36.44.53.21.33,0,.5.09.8s.17.46.2.69a.64.64,0,0,1-.14.35,2.1,2.1,0,0,1-.14.86l.07.17c.25,0,.16.58.43.88.06.1.37.19.37.19l.35-.29.21.53h.67c.31.48,1.11.67,1.59.88a5.4,5.4,0,0,1,1.16.57,1.77,1.77,0,0,1,.41.68c0,.13-1.43,1.22-1.53,1.91,0,.23,1.05,1.29,1.21,1.49.74.88.1,1,.26,1.52s.55.37.69.6-.33.66-.32,1a5.31,5.31,0,0,0,.29,1.37c.08.24.29.45.33.71s.14.69.23,1.21H472.38a37.63,37.63,0,0,1,1.09-3.66s.18-.2.21-.25a3.61,3.61,0,0,0,.33-1c.48-1.43.56-1,2.07-1.31a.94.94,0,0,1,.29,0,4,4,0,0,0-.6-.75c-.19-.06-.26,0-.43-.14S474,374,473.93,373.7a11.63,11.63,0,0,0-.57-1.82c-.29-.66-.69-1.25-1-1.88s-.79-1.54-1.17-2.31a5.48,5.48,0,0,1-.22-.61L471,367l.46-.08a1.18,1.18,0,0,0-.4-.93c-.43-.29-.15-.81-.18-1.18s-.64-.78-1-1.25a1.51,1.51,0,0,1-.33-1.2,10.62,10.62,0,0,0-.05-1.28c0-.14,0-.63-.19-.73s-.19-.47-.82-1a4.17,4.17,0,0,0-1.6-.71s-1.11.76-1.63,1.14-1-.29-1-.29-.29-.87-.86-.93-.86.16-1.15-.6-.85-.82-1-1a2.25,2.25,0,0,0-1.39-.47c-.57,0-.82-.71-.92-1a8.39,8.39,0,0,0-1.31-1.72c-.57-.58-.69-.81-1.1-1s-.16-.77.08-1.31-.38-.57-.79-.45-.08-1,.14-1.81-.5-1.08-.63-1.23a2.15,2.15,0,0,1-.53-1.41,10.51,10.51,0,0,0-.05-1.77c-.05-.38.05-1.67,0-2.34a6,6,0,0,1,.65-2.62,16.64,16.64,0,0,1,1.52-1.61,1,1,0,0,0,.7-.84,1.7,1.7,0,0,0-.37-1.36c-.19-.37,0-.65.23-.89a2.56,2.56,0,0,0,.49-1.32c0-.48.21-2,.21-2l-1.74,0-.06.5a1.85,1.85,0,0,1-1.12.77,26.37,26.37,0,0,1-3.5-.21c-.43,0-2.25-.07-2.55-.09l-1.88-.08-8.81-.38c-.25,0-.49,0-.74,0-.63-.07-1.21-.17-1.84-.21-.07,0-1.09,0-1.52,0-2.63-.11-5.26-.1-7.89-.11,0,0-7.82-.17-8.28-.25,0,0-.27-4.14-.45-6-.07-.74-.2-1.47-.26-2.21-.29-3.18-.43-6.39-.64-9.57-.88-1-6.91-8-7.06-8.35l6.7-.1c-.12-3.57-.08-7.15-.09-10.72a14.21,14.21,0,0,1-1.54-1.28,1.34,1.34,0,0,1-.17-1,3.74,3.74,0,0,0-.45-1.33c-.17-.22-.6-.68-.6-.68a.61.61,0,0,1-.25-.82c.25-.54.08-.77-.09-.94a11.29,11.29,0,0,1-1-1.53,3.13,3.13,0,0,1,0-.76,1.49,1.49,0,0,0-.32-1.22c-.39-.37-.37-.45-.25-.77a5.3,5.3,0,0,0,.12-1.12s-.07-.67.23-.61.37-.13.7-.45Z"/><path id="rect13" class="cls-5" d="M228.72,381.88c.07.4.15.84.16,1.07,0,.53-.16.71.22,1.17,0,.3-.18.73-.08,1s.26.4.32.6,0,.49.07.71.1.36.14.54-.07.57,0,.73a4.24,4.24,0,0,0,.54.74,3.9,3.9,0,0,1,.36.74,7,7,0,0,1,.57,1.51c-.15.36-1,1.05-1,1.3l.08.15c1.39.91.43.87,1.19,1.9.41.56,1.49.88,2.11,1.23a11.59,11.59,0,0,1,1.07,1,3.8,3.8,0,0,0,.78.77,4.46,4.46,0,0,1,.92.5,9.38,9.38,0,0,1,.6.9c.19.29.37.61.55.92s1.29.38,1.8.68a33.56,33.56,0,0,1,2.61,2.21c.27.62-.26.69-.45.88s-.54.72-.62.82c-.44.57-1.58,1.88-2,2.53a5,5,0,0,0-.32.94l-.62.23a3.16,3.16,0,0,0-.07.5l-.26.23a2,2,0,0,0-.23.59c-.38.19-1.42.16-1.49,1.05a1,1,0,0,0,.54.1c.72.56,1,.67,1.27,1.58.55.19,1.1.39,1.65.56.06.28-.24.66-.22.91l.31.61c.17.31-.58,2.53-.72,3a8.42,8.42,0,0,0-2,.13c-.31.08-.59.3-.89.36-.62.11-1.23.2-1.85.35a.9.9,0,0,0,0,.49c.11,1,1.45.64,1.65.85,0,.3-.21,2.15-.18,2.21s1.05,1.77,1.06,1.89l-.11.23c-.53.22-1,.45-1.56.68a2.84,2.84,0,0,0-.31.63c.07.17.12.38.19.55.38.86.34.65,1,1.3a4.68,4.68,0,0,0,1.91,1.28c.31.15.62.35.94.47s.64.11.81.27a2.8,2.8,0,0,1,.46.86,1.8,1.8,0,0,1,.61,0c.16.16.91.82.91.82-.41.31-1,.43-1.36.75a11.79,11.79,0,0,1-1,1.25,2.3,2.3,0,0,0,.09.86c.11.85-.11,1.75,0,2.6l0,.05a4.1,4.1,0,0,0,.66,1.13,7,7,0,0,0,2.46.13,29,29,0,0,0,1.78,2.73c1.14,1.71,2.08,3.55,3.11,5.34,0,2.27,0,4.54-.1,6.81a15,15,0,0,1,1.44,1.69c.26.41.24,1.05.53,1.43.6.79.67.05.61,1.38s-.19,2.66-.16,4c.06.06,1.11.91,1.15,1s.08.26.23.38a1.92,1.92,0,0,1,.77.28l.07.54c1.11.84-.1,1.23.19,2.08.05.14.19.28.25.42a2.39,2.39,0,0,1,.31,2c0,.1-.12.2-.16.31a3,3,0,0,1-.28.77,5,5,0,0,0,1.08,2.1c.07.61.1,1.23.15,1.84a13.57,13.57,0,0,1,.87,1.13,15.61,15.61,0,0,0-.79,4.05l.26,1.68c0,.06-.05.55-.05.55s1.18.38,1.3.46.23.24.44.62l3.71.41a6.55,6.55,0,0,0,1,.09c.76-.13,6-1.46,6-1.46.81-.18,1.62-.41,2.43-.59h0c.16-.28,1.11-2.05,1.18-2.12a12.11,12.11,0,0,1,1.34-.84,9.3,9.3,0,0,0,1-.64c-.06-.81-.16-1.61-.24-2.42l.07-.09,1.09-.06.09,0a10.13,10.13,0,0,1,.85-1l3.08-1.24a2.63,2.63,0,0,1,.06-.84c.16-.41.36-.84.48-1.25a21.33,21.33,0,0,0,.39-2.26,7.11,7.11,0,0,1,1.38-.73l.75.33.41-.58a30.94,30.94,0,0,1,3.32-.92,20.37,20.37,0,0,1,2.53-.64,1.3,1.3,0,0,0,.41-.39c.16-.25.25-.37.46-.35a.59.59,0,0,0,.52-.72,2.85,2.85,0,0,1,0-1.22c0-.23.27-1.14.36-1.56s.49-1.39.52-1.5a3,3,0,0,0,0-.88c-.06-.28-.2-.71,0-.85l.41-.23,1.34.49c.22.07,1.66.58,1.72.62s.7.77.85.93c.05.32-.16.66-.09,1a15.21,15.21,0,0,1,1.63.23l.88.13c.12,0,1.39,1.69,1.57,1.9a4.74,4.74,0,0,0,.81.93c0,.05.08.21.05.27a5.49,5.49,0,0,1,1,.66c.43.34.48.32,1,0,.25-.15.71.43,1.33.29l1-.34c.2,0,.36.13.5-.1l.24-.32c.67.16,1.35.37,2,.49l.2-.16c2.48,0,5-.07,7.46-.11a29.66,29.66,0,0,1,3,0l.14.06s1.11.62,1.3.71a1.46,1.46,0,0,0,.83,0c.28-.09,1.3.65,1.47.76s1.11.66,1.33.83,1,0,1.16,0a2.19,2.19,0,0,1,.81,0,11.47,11.47,0,0,1,1.32,1.26c.26.28.91.68,1.12,1s-.18.42-.35.62a.77.77,0,0,0-.22.48,1.87,1.87,0,0,0,.41,1.13c.37.32.54.54.34.88s.4.43.54.26.37-.06.52.3a13.86,13.86,0,0,0,.78,1.3,4.63,4.63,0,0,1,.76.62c.18.23,0,.7-.21.84s-.26,1-.34,1.22-.17.31.22.65a1.19,1.19,0,0,1,.51.8c.12.36.34.59.93.62s.46,1.16.32,1.42a.44.44,0,0,0,.26.68c.35.12,0,.28,0,.51a2.61,2.61,0,0,0,.07.61,2.53,2.53,0,0,0,.66-.17c.25-.11.3-.84.32-1.12a11.07,11.07,0,0,1,.4-1.06c.05-.27,0-1.64,0-2s.14-.86.38-.95.33-.07.05-.7.31-1.05.57-1.33.39-1.08.73-1.22.51-.85.68-1.08.26-.62.51-.73.31-.37.36-.61.58-1.8.69-2.2a1.27,1.27,0,0,1,.6-.79c.18-.05.42-.06.42-.26a5.24,5.24,0,0,1,.26-1.28,10.88,10.88,0,0,1,.66-1.38c.21-.39.18-.63.55-.71s.26-.34.29-.6.33-1.23.33-1.23c5.09,0,10.17,0,15.26,0h5.31c1.17,0,2.41.08,3.58,0,.06.23-.12.48,0,.71s.35.6.29.94-.48.67-.41.91c.31.38.26.95.69,1.22l.6-.2c.36,0,.69.7.83,1a2.65,2.65,0,0,0,.63,0c.27.29.44,1,.82,1l0-.14c.68-2.21,1.21-4.46,1.91-6.66.49-1.56.94-3.12,1.4-4.69s3-9.11,3.71-11.23c0,0,1.22-3.65,1.31-4a6.2,6.2,0,0,0,0-1.49c-.09-3.22-.11-6.43-.24-9.65,1.71-2.45,3.37-4.93,5.09-7.37a32,32,0,0,0,2.26-3.21c.31-.56,1.16-2.58,1.31-3,.31-.76,1.86-5.77,2.57-7.41a.59.59,0,0,1,.26-.17,4.46,4.46,0,0,0,1,.08s8.8-1.49,8.94-1.53c.56-.12,10.69-1.82,10.69-1.82,1.22-.21,2.47-.38,3.69-.63.94-.19,9.23-2.52,9.23-2.52s3.92-1.09,4-1.09c6.17.42,12.34.83,18.51,1.19.1,0,.92.36,1.25.51.9.41,1.78.93,2.66,1.39,1.29.67,5.53,2.78,6.34,3.3h.05c.68.23,2.7,1.36,3.07,1.53s2,.86,2.4,1.11c1.28.75,2.6,1.38,3.89,2.12a2.15,2.15,0,0,1,.95,1.31c-.84-.11-.71.65-.94.88a.87.87,0,0,1,.08.5c.13.15-.07,1.27-.07,1.27.49.08.46.58.6,1-.22.41.25,1.05.25,1.05l.06.38c.22.22.2.57.45.78,0,.87-.37.57-.66,1.07l.12.16a4,4,0,0,0,1-.46c.59-.55.53-.9,1.45-.88a2,2,0,0,0,.28-.46,1.49,1.49,0,0,1,.84-.6,3.38,3.38,0,0,0,.45,0c.36-.17.24-.53.39-.64.44-.23.66,0,1,.21a1,1,0,0,1,.15-.51c.15-.22.73-.54.73-.79v0c-.12-.41-2-1.59-2.48-1.95-.65-.52-1.17-1.12-1.85-1.6-.19-.13-1.39-1.07-1.28-1.33.49-1.17,1.07-2.32,1.61-3.48l3.57-7.75c.68-1.49,1.39-3,2.09-4.46.11-.23.14-.47.36-.63a.49.49,0,0,1,.25.12,1.45,1.45,0,0,1,.94.07.46.46,0,0,0,.29-.21c0-.26.07-.49.08-.74s-.16-.4-.19-.62,0-1.31-.22-1.43-.9.08-1-.15c.75-2.81,1.67-5.57,2.51-8.35.1-.3.18-.61.27-.93Z"/><path id="rect17" class="cls-6" d="M305.68,183.65a.39.39,0,0,0-.33.16c-.26.31-.37.51-.6.56a.94.94,0,0,0-.68.65c-.11.43.14,1.22-.34,1.25s-.73,0-.82.29,0,.51-.37.51a4.06,4.06,0,0,1-1-.2c-.14-.06-.25-.57-.62-.8s-.51-.17-.71.09-.82.23-.54-.23.48-.85.11-.79-.59.45-.9.4-.6-.17-.88-.23-.51-.17-.8.2-1,1-1,.45-.05-.68-.62-.45-1.25.25-1.42.48-1.13.74-1.47.28-.45-.65-.91-.45a3.21,3.21,0,0,1-1.36.23c-.34,0-.85,0-1,.36s-.17.57-.8.46a1.79,1.79,0,0,0-1.33.2c-.25.17-.51-.09-.85,0s-.31.37-.74.51-.76.2-.88.37-.45.74-.62.37-.25-.48-.88-.37a13.27,13.27,0,0,0-1.76.29,1.14,1.14,0,0,1-1.07.22c-.54-.17-.51.29-.51.51s-.23.46-.54.6-1.42.68-1.59.79a18.76,18.76,0,0,0-2,1.36c-.31.34-.71,1.08-1.05,1s-.43,0-.65.28-.88.88-1.05,1.08-.31.62-.71.7a.9.9,0,0,0-.68.77.84.84,0,0,1-.34.85c-.37.23-1,.85-1.45.77s-1.24.17-1.05.45,0,.4-.31.54-.45.51-.93.17-.6-.46-.88-.34a2.23,2.23,0,0,1-1,0c-.45-.06-.77,0-.71.51s.06.82-.62.79-1.14-.31-1.42,0a.5.5,0,0,0-.11.7c.11.26-.12.68-.4.88a9,9,0,0,1-1.59.91,7,7,0,0,0-1.42.62,7.87,7.87,0,0,0-.71,1.31,2.46,2.46,0,0,1-.65.85c-.22.17-.82.45-.88.62s-.42,1.22-.53,1.42-.32.57-.74.2-1.19-1.05-1.65-1.08-2.29-.08-2.49-.06a2.3,2.3,0,0,1-.94,0,1.08,1.08,0,0,0-.85.06c-.22.14-1.72,1.13-1.84,1.22s-.14.37-.14.54a.85.85,0,0,1-.2.68c-.23.22-1.13,1.36-1.3,1.53a13.77,13.77,0,0,0-.68,1.33,8.74,8.74,0,0,1-.6,1c-.17.17-.76,1-1,1s-.91.68-1.19.48a1.08,1.08,0,0,0-1.19.37c-.14.31-.28.31-.76.25a2.73,2.73,0,0,0-1.45.17,7.73,7.73,0,0,0-.94.86,2.27,2.27,0,0,1-1,.7,29.83,29.83,0,0,1-3.2.6c-.68,0-.71-.09-.51-.45a1.32,1.32,0,0,0,.11-1,1.29,1.29,0,0,1,.15-1c.22-.36.34-.65-.09-.73s-.79-.26-1.25.08-.7.54-1.21.37-1.48-.54-1.68-.42a1.47,1.47,0,0,1-1.3-.15,3,3,0,0,0-1.7-.31,5.59,5.59,0,0,1-1.87-.34,5.74,5.74,0,0,0-1.93-.17,9.09,9.09,0,0,1-1.53-.22,2,2,0,0,0-1.22-.12,4.42,4.42,0,0,1-1.3.25,6.55,6.55,0,0,0-1.1.08c-.18,0-.14.11-.38,0a1.55,1.55,0,0,0-.7,0c2.87,4.86,5.79,9.66,8.66,14.51,1,1.61,2,3.21,2.87,4.85.22.4.39.84.6,1.25.48.93,1.12,1.81,1.62,2.73.2.35.3.72.46,1.06.26.56.58,1.11.85,1.67.53,1.14,3.15,6.88,3.94,8.59a1.71,1.71,0,0,0,0,.53l-.34.12c-.07,0-.45,1-.54,1-.4.35-.59.18-.89.75a2.21,2.21,0,0,0-.23.88,1.89,1.89,0,0,0,.46,0l.48.62c-.07.19-.21.71-.21.71a3.76,3.76,0,0,0-.28.39s-.94,0-1.07.17a8.8,8.8,0,0,0-1.06,0s.14.54.08.57-.43-.07-.6-.06a3.22,3.22,0,0,0-.42,1l-.47,0a3.57,3.57,0,0,0-.36,1.05c-.1.18-.43.35-.61.22a8.85,8.85,0,0,1-.16,1.56.55.55,0,0,0,.11.62.36.36,0,0,1,.11.45,3.11,3.11,0,0,0-.2.88c0,.31.32.34.46.6a1.25,1.25,0,0,1-.09.93.52.52,0,0,0-.08.51,3.21,3.21,0,0,1-.17,1,.3.3,0,0,1,.22.17,1.5,1.5,0,0,1-.17.94c-.17.25,0,.31.29.51s.08.51,0,.79a1.63,1.63,0,0,0,.06.91c.05.23.17.48,0,.65s-.12.31.05.6a.54.54,0,0,1-.17.68c-.14.14,0,.59.09.73a1.37,1.37,0,0,1,0,.82,2.1,2.1,0,0,0,.15.88,2,2,0,0,1-.44,1.11l0,.21c-.26.67-.2.89-.84,1.19l-.17.33a1.14,1.14,0,0,1,.12.41,2.74,2.74,0,0,1,0,.57,7.42,7.42,0,0,0-1.56-.17c0,.18,0,.3-.06.48a12.9,12.9,0,0,0,.64,1.17c.5.23,1.08.49,1.27,1.06,0,0-.27.68-.26.7a7.93,7.93,0,0,0,.45,1.12c.13.2.35.33.41.57s-.26.66-.18,1c0,.16.14.3.18.45.12.53-.4.88.16,1.37.41.36.81.66,1.2,1.05,0,0,.18.45.39.89H412.32c.18-.11.37-.36.78-.71a1.63,1.63,0,0,0,.46-1.69,1.6,1.6,0,0,0-.56-.76c-.16-.19-.55-.22-.58-.64s.08-.6-.2-.8a.83.83,0,0,1-.19-1c.19-.27-.07-1-.6-.92s-.85.28-1,0-1-.53-1.21-.87a.83.83,0,0,0-.92-.35c-.23.11-.63.28-.91-.06a5.07,5.07,0,0,0-1.08-.79,4.54,4.54,0,0,0-1-.31c-.19,0-.71-.6-1.07-.65s-.77-.74-1.14-.77a2.17,2.17,0,0,1-1.07-.65,1.4,1.4,0,0,1-.49-.74,1,1,0,0,0-.71-.57,1.89,1.89,0,0,0-.82.06c-.22.06-.45,0-.38-.29a8.58,8.58,0,0,0,.21-.87c0-.14.14-.26-.39-.48s-.66-.12-.66.11-.08.38-.39.19-.45-.17-.59.18-.06.88-.58.71-1.13-.48-1.24-.14a.55.55,0,0,1-.94.05c-.31-.34-.62-.62-.76-.48s-.37,0-.57-.25-.22,0-.49.06-.33.3-.7.45-1.16.55-1.32.6-.92.36-1,.39a1.08,1.08,0,0,1-.74-.2c-.28-.2-.75-.25-.8-.38s-.22-.81-.79-.56a1.55,1.55,0,0,1-1.16.2,1.07,1.07,0,0,0-.74.12,5,5,0,0,0-.85.28c-.11.11-.49.44-.66.16a.56.56,0,0,0-.81-.08.57.57,0,0,1-.77.06,1.65,1.65,0,0,1-.65-1c-.06-.4,0-1.11-.54-1.16a1.13,1.13,0,0,1-.93-.71,2.09,2.09,0,0,0-.8-.71,4.67,4.67,0,0,0-.68-.34c-.11,0-.42-.11-.45-.4s-.45-.42-.54-.59-.51-.94-.91-1a.68.68,0,0,1-.51-.88,3.65,3.65,0,0,0,0-1.39c-.06-.2-.06-.45-.31-.54a.91.91,0,0,1-.57-.34c-.08-.17-.25-.5-.43-.42s-.93,0-1.13.08a2.7,2.7,0,0,0-.71.43c-.19.17-.3.66-.61.36s-.58-.42-.83-.34a4,4,0,0,1-.88.17,1.45,1.45,0,0,1-.62-.17,2.79,2.79,0,0,1-.85-.56,6.54,6.54,0,0,0-.63-.77,1.2,1.2,0,0,0-.68-.11c-.25,0-1.08,0-1.27,0a1.73,1.73,0,0,1-.68-.29,3.1,3.1,0,0,0-.83-.28c-.25,0-.59-.17-.42-.4a.46.46,0,0,0,0-.71c-.28-.22-.65-.7-1-.53a3.49,3.49,0,0,1-.71.37c-.2,0-.23.17-.51.05s-.45.06-.34.26,0,.48-.34.28a1.79,1.79,0,0,1-.82-.94,2.44,2.44,0,0,0-1-1c-.34-.17-.8-1-.88-1.14s-.37-.59-.6-.42-.59.05-.85-.12-.51,0-.71-.31-.37-1.39-.76-1.64-.54-.46-.37-.63.28-.34.11-.53a2.75,2.75,0,0,1-.39-1c-.06-.25-.17-.48-.46-.51s-.88-.28-1.13-.11-.26.28-.54.25-.31.09-.43.26-.11.34-.45.34-.57.06-.65.31-.26.57-.68.45a12.91,12.91,0,0,1-1.5-.28c-.12-.11-.43-.54-.74-.57a1.72,1.72,0,0,1-1.16-.73c-.17-.4-.31-.63-.46-.68s-.25-.23-.28-.54-.2-.74-.54-.74a10.48,10.48,0,0,1-1.05-.17,1.5,1.5,0,0,1-.65-.51,1.54,1.54,0,0,0-.88-.62.85.85,0,0,1-.68-.29,4.4,4.4,0,0,0-1.16-.56,10.19,10.19,0,0,0-1.82-.15,1,1,0,0,0-.56.12c-.26.14-.43.34-.88.2s-.71-.06-.62.17.11.51-.06.62-.57.85-.91,1a.59.59,0,0,1-.82-.2c-.23-.28-.4-.14-.68-.11a.83.83,0,0,1-.82-.23,1.33,1.33,0,0,0-.88-.51c-.29,0-.57.23-.74.28s-.17-.28-.34-.48-.25.06-.31.29-.4.85-.71.17-.54-.8-.74-.83-.59-.22-.9.15-.8.82-.88.36-.23-.76-.65-.73a2.24,2.24,0,0,1-1.82-.43c-.48-.54-1-1.44-1.5-1.64s-.62-.4-.4-.63a2.78,2.78,0,0,0,.48-1.64c-.08-.4-.17-1.25-.56-1a1.06,1.06,0,0,1-1.05,0,2.73,2.73,0,0,0-1-.31,2.3,2.3,0,0,1-1.07-.48,1.69,1.69,0,0,1-.74-1.19c0-.32.14-1-.28-1s-.37.37-.37.63-.11,1-.37.82-.31-.65-.43-.82-.56-1-.68-1.22-.42-1-1-1-1.78-.57-2.32-.49-1.56.29-1.56-.76-.06-1.31-.34-1.62a1.93,1.93,0,0,1-.37-1.24c0-.49-.17-2.24-.65-2.27s-.63,0-.71-.4-.09-.76-.4-.57-.42.85-.45,1.14.23.82-.79.34-.66-.88-.46-1.22a3.63,3.63,0,0,0,.46-1.11c0-.19.62-1,0-1.1a.83.83,0,0,1-.77-1c0-.48.14-1.75-.79-1.44s-1.22-.11-1.34-.48-.82-2.27-.59-2.5.54-.45.42-.79-.54-.23-.9-.65-.63-.88-.29-1.17.46-.48,0-1-.56-1.33,0-1.64,1.39-.77,1-1.48-.34-1,.17-1.39.8-.62.43-1.05a.87.87,0,0,1-.28-1,1.89,1.89,0,0,0-.6-1.81c-.65-.46-1.42-.46-1.08-1.11a4.78,4.78,0,0,0,.34-2c0-.37,0-.88-.31-1s-1.08-.34-.74-.88a1.59,1.59,0,0,0,.06-1.42,1.57,1.57,0,0,1-.11-.93c.08-.2-.29-.8.17-1.11a1.37,1.37,0,0,0,.68-1,5.4,5.4,0,0,0,0-.75s.42-1.15.9-1.43.8-.57.85-.88.54-1.22.4-1.84a7.35,7.35,0,0,1-.17-1.59,3.28,3.28,0,0,0-.42-1.39,1.42,1.42,0,0,1-.23-1.16,2.06,2.06,0,0,0,.06-1.16,1.62,1.62,0,0,1,.14-1.7c.56-.63.68-1,.31-1.31a3.85,3.85,0,0,1-.74-1.36,9.91,9.91,0,0,1-.56-1.13,1.17,1.17,0,0,0-.74-.77,2.28,2.28,0,0,0-.69-.24Z"/></g><g id="Capa_3" data-name="Capa 3"><polyline class="cls-7" points="265 281 306 314 316 449 176 461 182 423 239 426"/><path class="cls-7" d="M239,426s6-5,10-20,15-123,15-123l-53,29L182,423Z"/><path class="cls-8" d="M182,424s-20.64,7.62-27,7-12,12-12,12l32,17c1-8,15-10,15-10,41-9,49-23,49-23Z"/></g><g id="Capa_4" data-name="Capa 4"><path class="cls-7" d="M270,398c-1.25-6.92,6.4-9.73,2-20a15.83,15.83,0,0,1-6-14c1-9-8-9-6-18,10.42-49.44,76.81-102.72,132-58,15,15,21,21,22,23s0,18,3,19,14,8,14,16v39l-7,15c-12.35,2.63-45.25,11.44-55,24-2,6-33-7-33-7s-23,0-23-3a4.33,4.33,0,0,0-2-4s-7,10-11,10S274,405,270,398Z"/><path class="cls-8" d="M260,346c-2,9,7,9,6,18a15.83,15.83,0,0,0,6,14c4.41,10.4-3.24,12.94-2,20,4,7,26,22,30,22s11-10,11-10a4.33,4.33,0,0,1,2,4c0,3,23,3,23,3s31,13,33,7c9.77-12.57,42.61-21.35,55-24,0,0-2-5-9-8-11.74-4.51-3.84-6.52-10-13-4.16-9.91,4.68-19.39-11-27,1,33-26,27-26,27-22-2-15-35-15-35-59,18-57-54-57-54C275,304,262,337,260,346Z"/><path class="cls-9" d="M416,352c1.18-13-2.4-8.8-17-18-8-5-18-23-18-23s-7-18-34-15-38.23,38.49-38.23,38.49"/><path class="cls-9" d="M404,352s2-11,12-8"/><path class="cls-9" d="M331,346c-6-14.76,24.71-40.09,34-13"/><path class="cls-9" d="M394,352c-1.34-23.27-29.31-29.24-41-8"/><path class="cls-9" d="M404,372s13-6,20,3c0,0-7.62,6.66-16.31,8.83"/></g><g id="Capa_6" data-name="Capa 6"><path class="cls-10" d="M183.07,123.29q8.27,13.11,16.52,26.24c3.13,5,3.72,9.69,2,14.19s-5,8.65-9.73,12.79c-5,4.36-9.68,7.17-14.26,8.3s-8.79-.15-12.57-4.16L143.49,157.8c5.63-6,8.52-8.82,14.46-14.24l18.8,23.22c1.4,1.73,2.84,2.6,4.32,2.64s3.13-.75,5-2.35a10.82,10.82,0,0,0,3.19-4.12,4.92,4.92,0,0,0,.36-3.52,25.35,25.35,0,0,0-2.87-4.7l-15.82-22.27C175.7,128.63,178.13,126.79,183.07,123.29Z"/><path class="cls-10" d="M221,139.85l5.63,11.25c-4.93,2.79-7.36,4.27-12.15,7.41l-6.32-10.84C213.19,144.36,215.76,142.79,221,139.85Z"/><path class="cls-10" d="M297.13,78.66l5.31,47.3c-5.54.7-8.31,1.14-13.81,2.22l-5.85-33.49q-2.19,17.66-3,35.44c-3.74.9-5.6,1.4-9.3,2.48q-8.88-15.15-19-29.52l9.9,32.4c-4.32,1.48-6.47,2.29-10.73,4L234.54,95a206.88,206.88,0,0,1,22.72-8c5.91,8.75,8.72,13.2,14,22.24.62-10.58,1.09-15.89,2.31-26.51A207.81,207.81,0,0,1,297.13,78.66Z"/><path class="cls-10" d="M323.29,111.68l.25,12.73c-5.45.12-8.17.27-13.6.75-.4-5.07-.6-7.61-1-12.69C314.67,112,317.54,111.8,323.29,111.68Z"/><path class="cls-10" d="M345.37,111.28c6-.5,9-.65,15-.74.74,4,3.58,6.33,8.59,7.31,3.89.76,6,.26,6.4-1.65a2.7,2.7,0,0,0-.91-2.64,15.2,15.2,0,0,0-4.66-2.5c-8.84-3.33-14.59-6-17-8.91a12.66,12.66,0,0,1-3.26-9.48c.37-4.48,2.69-8,7.15-10.51s10.84-3,18.6-1.61c9.13,1.63,18.55,7.13,20.43,17-6-.25-8.94-.27-14.82-.13-.8-3.45-3.5-5.71-8-6.57-3.76-.72-5.8,0-6.09,1.92a2.32,2.32,0,0,0,1,2.24,19,19,0,0,0,4.62,2.26,78.29,78.29,0,0,1,13.22,6.25,14.64,14.64,0,0,1,5.55,6.44,12.23,12.23,0,0,1,.57,8.42c-1.25,4.63-4.32,7.74-9,9.56s-10.19,1.85-16.51.78C356.64,127.08,347.51,121.41,345.37,111.28Z"/><path class="cls-10" d="M409.54,127.55l-4.3,11.9c-5.15-2.09-7.76-3-13-4.77,1.43-4.87,2.14-7.3,3.57-12.16C401.34,124.34,404.09,125.35,409.54,127.55Z"/><path class="cls-10" d="M453,166.57c1.1-3.78,1.64-5.67,2.66-9.49-4.68-3.43-7.06-5.05-11.89-8.13-2.9,2.53-4.33,3.81-7.16,6.41-4.34-2.68-6.54-4-11-6.34a353.14,353.14,0,0,1,36.69-32.89c6.79,4.33,10.12,6.64,16.65,11.56A432.34,432.34,0,0,1,465.75,177C460.76,172.58,458.2,170.5,453,166.57Zm-1.73-25c3,2,4.52,3,7.49,5.13,1.42-5.65,2.08-8.5,3.32-14.23C457.67,136.08,455.51,137.9,451.26,141.61Z"/><path class="cls-10" d="M489.25,182.48l-8.49,9c-4.16-4.41-6.29-6.52-10.65-10.57l7.9-9.59C482.61,175.59,484.86,177.82,489.25,182.48Z"/><path class="cls-10" d="M160,311c-.48,3.36-.69,5.07-1.06,8.52l4.92.65c-.33,3.08-.47,4.63-.7,7.78L150,326.87c.6-8.23,1.06-12.23,2.25-20l3.1.62c-.69,4.47-1,6.74-1.48,11.37l2.13.28c.38-3.51.59-5.25,1.08-8.66Z"/><path class="cls-10" d="M168,295l-2.82.62c-.56,2.58-.83,3.88-1.32,6.52l2.28,2.08c-.44,2.43-.64,3.65-1,6.13-4.75-4.08-7.08-6.22-11.64-10.71.63-3.39,1-5.07,1.72-8.37a141.73,141.73,0,0,1,14.58-3.54C169,290.59,168.65,292,168,295Zm-6.71,5.15c.31-1.61.47-2.41.81-4-1.66.38-2.49.59-4.15,1C159.26,298.36,159.93,299,161.27,300.14Z"/><path class="cls-10" d="M169.22,272c.95-2.46,1.44-3.67,2.46-6.06a6,6,0,0,1,2.34,4.55,16.62,16.62,0,0,1-.94,6.72,15,15,0,0,1-3.92,6.69,5.23,5.23,0,0,1-5.5,1.25,6.23,6.23,0,0,1-4-4.54,15,15,0,0,1,.61-8.63c1-3.13,2.33-5.29,3.82-6.49a4.63,4.63,0,0,1,4.57-1c-.9,2.56-1.33,3.86-2.15,6.49a2,2,0,0,0-2.09.1,3.65,3.65,0,0,0-1.25,1.86c-.74,2.25.13,3.87,2.55,4.83,1.36.54,2.37.61,3,.24a3.54,3.54,0,0,0,1.49-2.08C170.84,274.14,170.51,272.85,169.22,272Z"/><path class="cls-10" d="M176.07,258.75l3.18,1.74c-1,2.25-1.47,3.39-2.39,5.71l-3.23-1.61C174.57,262.22,175.06,261.05,176.07,258.75Z"/><path class="cls-10" d="M185.8,236.76c1.35-2,2-3,3.44-5a6.07,6.07,0,0,1,1.48,4.8,14.18,14.18,0,0,1-2.07,5.94,12.4,12.4,0,0,1-5,5.1,5.36,5.36,0,0,1-5.55-.28,6.62,6.62,0,0,1-3.11-5.18,12.88,12.88,0,0,1,2.08-7.74c1.54-2.61,3.18-4.26,4.83-5a4.73,4.73,0,0,1,4.62.23c-1.32,2.13-2,3.22-3.21,5.43a2.06,2.06,0,0,0-2.05-.45,3.16,3.16,0,0,0-1.54,1.39c-1.1,1.87-.54,3.58,1.65,5.09,1.23.84,2.2,1.17,2.91,1a3,3,0,0,0,1.81-1.52C187,239.11,186.91,237.84,185.8,236.76Z"/><path class="cls-10" d="M187.77,218.72l10.38,9.1c-1.5,2-2.24,3.06-3.68,5.16l-10.67-8.69C185.35,222,186.14,220.91,187.77,218.72Z"/><path class="cls-10" d="M208,211l2.25,2.45A132.75,132.75,0,0,0,200.31,225l-10.21-9.32a141.45,141.45,0,0,1,10.68-12.45l2.17,2.37c-2.63,2.78-3.91,4.22-6.41,7.18l1.44,1.41c2-2.37,3-3.53,5.1-5.78l2.11,2.25c-2.05,2.22-3.05,3.35-5,5.68.64.64,1,1,1.62,1.59C204.19,215.06,205.42,213.68,208,211Z"/><path class="cls-10" d="M224.28,200.28c-1.5,1.25-2.25,1.88-3.72,3.18-3.14-.53-4.73-.75-7.93-1.11a24,24,0,0,1-3.44-.69,6.53,6.53,0,0,1,1.84,1.4l4.36,5.16c-1.42,1.37-2.12,2.07-3.51,3.49l-9.29-10.39c1.74-1.78,2.63-2.66,4.42-4.37,2.76.19,4.13.32,6.83.64a16.07,16.07,0,0,1,3.28.68,14.16,14.16,0,0,1-2.61-2.58L212,192.42c1.59-1.4,2.4-2.09,4-3.44Z"/><path class="cls-10" d="M232.71,187.23c1.9-1.18,2.85-1.75,4.78-2.87a5.83,5.83,0,0,1-.23,4.88,11.4,11.4,0,0,1-3.84,4.3,10.34,10.34,0,0,1-6.2,2.25,6,6,0,0,1-5-2.72,6.83,6.83,0,0,1-1.15-5.87,10.54,10.54,0,0,1,4.43-5.81,10.13,10.13,0,0,1,6.06-2.28,5.19,5.19,0,0,1,4.15,2.21c-1.91,1.32-2.86,2-4.73,3.38a2.3,2.3,0,0,0-1.72-1.28,2.72,2.72,0,0,0-1.86.53c-1.63,1.16-1.67,2.9-.16,5.17.84,1.28,1.62,2,2.32,2.16a2.93,2.93,0,0,0,3.12-4.05Z"/><path class="cls-10" d="M240.48,172.13,247,184.67c-2.05,1.16-3.07,1.76-5.08,3l-6.9-12.3C237.17,174,238.26,173.38,240.48,172.13Z"/><path class="cls-10" d="M259.33,178.36l-2.08-2.11c-1.89.87-2.82,1.33-4.68,2.26.05,1.22.08,1.83.15,3.05-1.69.87-2.54,1.32-4.21,2.25-.47-6.19-.62-9.31-.73-15.59,2.4-1.21,3.6-1.79,6-2.9,4.56,4.14,6.75,6.28,11,10.66C262.6,176.89,261.5,177.36,259.33,178.36Zm-7.14-3.11c1.15-.57,1.72-.85,2.88-1.39-1.24-1.23-1.86-1.85-3.12-3.06C252,172.58,252.08,173.47,252.19,175.25Z"/><path class="cls-10" d="M263.13,172.23c1.95-1.12,2.93-1.67,4.92-2.72.81.91,2.11,1,3.92.39,1.4-.49,2-1,1.85-1.56a.76.76,0,0,0-.71-.51,6.83,6.83,0,0,0-1.9.18c-3.38.69-5.65.93-6.83.57a3.32,3.32,0,0,1-2.33-2,3.93,3.93,0,0,1,.86-3.93,11.57,11.57,0,0,1,5.48-3.46c3.95-1.39,6.93-1.07,8.82.79-1.85,1-2.76,1.52-4.56,2.58-.78-.74-1.95-.85-3.48-.31-1.28.45-1.82,1-1.63,1.53a.66.66,0,0,0,.63.42A7.35,7.35,0,0,0,270,164a38.36,38.36,0,0,1,5.1-.71,5.2,5.2,0,0,1,2.77.62,3.18,3.18,0,0,1,1.59,2,4.1,4.1,0,0,1-1.31,4.05,13.45,13.45,0,0,1-5.43,3.22C268.32,174.73,265.19,174.49,263.13,172.23Z"/><path class="cls-10" d="M294.47,161.63l.95,5.07c-2.31.47-3.46.72-5.75,1.26-1.24-5.55-1.86-8.32-3.09-13.87,3.4-.81,5.1-1.17,8.53-1.81a16.32,16.32,0,0,1,5-.32,5.63,5.63,0,0,1,2.87,1.18,3.39,3.39,0,0,1,1.28,2.25,3.82,3.82,0,0,1-1.5,3.53,10.1,10.1,0,0,1-4.94,2.08C296.45,161.24,295.79,161.36,294.47,161.63Zm-.65-3,2-.39c1.75-.33,2.56-.94,2.41-1.88s-1-1.18-2.69-.87l-2.22.43C293.51,157,293.61,157.56,293.82,158.65Z"/><path class="cls-10" d="M322.44,149.32c.11,3.76.17,5.65.29,9.42a4.14,4.14,0,0,1-2,3.93,12.13,12.13,0,0,1-5.43,1.51,13.51,13.51,0,0,1-5.83-.58,3.84,3.84,0,0,1-2.59-3.39c-.45-3.83-.68-5.75-1.13-9.58,2.52-.32,3.79-.45,6.33-.68.3,3.64.46,5.47.77,9.11a1.78,1.78,0,0,0,.71,1.43,3,3,0,0,0,1.89.32,3.9,3.9,0,0,0,1.72-.46,1.48,1.48,0,0,0,.77-.82,6.16,6.16,0,0,0,0-1.67c-.19-3.33-.28-5-.47-8.32C319.48,149.43,320.47,149.38,322.44,149.32Z"/><path class="cls-10" d="M342.76,164.06c-2.56-.21-3.84-.3-6.41-.42-1-2.23-1.52-3.34-2.6-5.55l-1.88-.05-.1,5.45c-2.32-.05-3.48-.05-5.8,0-.07-5.69-.11-8.54-.19-14.23,4.26-.06,6.39,0,10.65.16a10.17,10.17,0,0,1,5.38,1.47,3.41,3.41,0,0,1,1.69,3.18,3.6,3.6,0,0,1-.87,2.11,5.84,5.84,0,0,1-2.89,1.46C341,160.18,341.6,161.47,342.76,164.06ZM331.93,155c1,0,1.56,0,2.59.07a4.23,4.23,0,0,0,1.86-.27,1.09,1.09,0,0,0,.74-1c0-.91-.73-1.41-2.3-1.46-1.14,0-1.7-.06-2.84-.08Z"/><path class="cls-10" d="M355.82,165.7c-.25-1.18-.38-1.77-.64-2.95-2-.32-3.05-.46-5.09-.73-.59,1.06-.89,1.59-1.46,2.65-1.87-.23-2.81-.33-4.68-.5,2.81-5.46,4.31-8.16,7.49-13.49,2.63.34,3.94.53,6.56,1,1.65,6,2.38,9.07,3.64,15.12C359.32,166.29,358.15,166.08,355.82,165.7Zm-4.35-6.63c1.25.17,1.88.26,3.13.45-.39-1.73-.6-2.59-1-4.32C352.72,156.74,352.3,157.52,351.47,159.07Z"/><path class="cls-10" d="M362.2,162.68c2.22.14,3.32.24,5.54.46.21,1.22,1.24,2.05,3.09,2.52,1.44.37,2.23.29,2.37-.28a.77.77,0,0,0-.33-.82,6.52,6.52,0,0,0-1.69-.91c-3.2-1.31-5.22-2.38-6-3.35a3.48,3.48,0,0,1-.92-3A3.79,3.79,0,0,1,367,154.5a11.29,11.29,0,0,1,6.42.16c4,1,6.37,3,7,5.58-2.07-.18-3.11-.25-5.18-.36-.27-1.06-1.19-1.81-2.77-2.21-1.3-.33-2-.2-2.15.37a.69.69,0,0,0,.3.71,7.63,7.63,0,0,0,1.61.83,39.36,39.36,0,0,1,4.66,2.25,5.63,5.63,0,0,1,2,2.08,3.29,3.29,0,0,1,.29,2.56,4,4,0,0,1-3.22,2.68,13,13,0,0,1-6.25-.33C365.25,167.69,362.75,165.73,362.2,162.68Z"/><path class="cls-10" d="M407.07,167.26c-3.66,1.84-5.45,2.81-8.94,4.83l-2.28,5.55c-2.08-.92-3.12-1.37-5.23-2.21l2.1-5.63c-1.31-4.05-2-6.07-3.59-10.11,2.59.93,3.88,1.42,6.44,2.45.69,2.29,1,3.44,1.61,5.73,1.93-1.21,2.91-1.8,4.89-3C404.08,165.82,405.08,166.29,407.07,167.26Z"/><path class="cls-10" d="M422.55,192.72c-1.58-1.11-2.38-1.66-4-2.71-.5-3.3-.79-5-1.45-8.28a27.16,27.16,0,0,1-.43-3.65,6.85,6.85,0,0,1-.69,2.28l-3.25,6c-1.65-1-2.48-1.46-4.15-2.38l6.4-12.6c2.1,1.17,3.14,1.77,5.2,3,.67,2.81,1,4.22,1.52,7a18.27,18.27,0,0,1,.41,3.49,15.36,15.36,0,0,1,1.49-3.43l2.13-3.59c1.74,1.14,2.61,1.73,4.32,2.93Z"/><path class="cls-10" d="M433.75,201.34c.33-1.17.48-1.76.8-2.94-1.64-1.36-2.47-2-4.15-3.33l-2.5,1.56c-1.54-1.18-2.32-1.75-3.89-2.88,5-3.33,7.56-4.92,12.81-7.94,2.16,1.67,3.23,2.54,5.33,4.31-1.34,6.2-2.09,9.25-3.77,15.28C436.55,203.73,435.63,202.92,433.75,201.34ZM433,193.2c1,.81,1.53,1.22,2.54,2.05.46-1.73.68-2.6,1.11-4.34C435.16,191.82,434.43,192.27,433,193.2Z"/><path class="cls-10" d="M451.78,203.63l-7,7.91c-1.62-1.66-2.44-2.47-4.11-4l6.8-8.16c-1.26-1.19-1.9-1.78-3.18-2.94l2.08-2.63a141.82,141.82,0,0,1,10.77,10.62l-2.28,2.43C453.61,205.52,453,204.89,451.78,203.63Z"/><path class="cls-10" d="M469.61,219.53l-6.91,6a3.56,3.56,0,0,1-4.2.6,14,14,0,0,1-4.51-3.91,16.43,16.43,0,0,1-3.2-5.45,4.09,4.09,0,0,1,.92-4.32l6.5-6.83c1.82,2,2.72,3,4.47,5.11l-6.37,6.22a1.88,1.88,0,0,0-.64,1.5,3.73,3.73,0,0,0,.95,1.86,4.53,4.53,0,0,0,1.42,1.25,1.36,1.36,0,0,0,1.09.18,5.82,5.82,0,0,0,1.28-1l6-5.48C467.69,217,468.34,217.8,469.61,219.53Z"/><path class="cls-10" d="M471,247.22c-1.4-2.56-2.12-3.81-3.6-6.27,1.06-2.29,1.57-3.45,2.58-5.78l-1.12-1.77-4.16,3.22c-1.39-2.16-2.11-3.22-3.57-5.3l10.59-8.82c2.68,3.82,4,5.79,6.44,9.85a13.66,13.66,0,0,1,2.19,5.94,3.66,3.66,0,0,1-1.37,3.53,2.85,2.85,0,0,1-2.11.46,6.25,6.25,0,0,1-2.87-1.84C472.86,243.19,472.26,244.54,471,247.22Zm.18-15.61c.62,1,.93,1.45,1.54,2.43a5.35,5.35,0,0,0,1.34,1.55,1,1,0,0,0,1.19.1c.71-.51.62-1.53-.31-3-.66-1.07-1-1.6-1.68-2.66Z"/><path class="cls-10" d="M477.67,260.82c.74-1,1.11-1.45,1.84-2.43-1-2.19-1.48-3.28-2.52-5.41l-2.87.21c-1-1.94-1.45-2.9-2.46-4.78,5.82-.65,8.76-.86,14.69-1,1.34,2.75,2,4.14,3.22,7-3.56,5.33-5.41,7.92-9.23,12.93C479.32,264.65,478.78,263.36,477.67,260.82Zm2.38-8.3c.63,1.31.94,2,1.54,3.32,1.07-1.44,1.6-2.17,2.65-3.64C482.56,252.31,481.72,252.37,480.05,252.52Z"/><path class="cls-10" d="M489.22,283.42l-3.09,1.12a156.35,156.35,0,0,0-5.05-15.33l12.18-5.8c1.06,2.8,1.56,4.22,2.53,7.11l-9.33,4C487.64,278,488.19,279.78,489.22,283.42Z"/><path class="cls-10" d="M493.84,304l-3.09.71A169.81,169.81,0,0,0,486.8,287l12.63-4.39a185.08,185.08,0,0,1,4.26,19.19l-3,.69c-.83-4.68-1.3-7-2.34-11.47l-1.85.56c.83,3.59,1.21,5.42,1.91,9.13l-2.87.7c-.68-3.65-1.06-5.45-1.88-9l-2.08.62C492.6,297.34,493.05,299.54,493.84,304Z"/><path class="cls-10" d="M494.58,304.34c.76,2.79,1.12,4.21,1.81,7.09-1,.81-1.27,2.47-1,5,.24,2,.61,3,1.15,2.91.28,0,.48-.31.58-.8a12.69,12.69,0,0,0,.13-2.57c-.12-4.65,0-7.64.49-9.06s1.21-2.25,2.16-2.46c1.23-.27,2.4.44,3.51,2.18a19.87,19.87,0,0,1,2.38,8.13c.68,5.6-.1,9.56-2.12,11.58-.62-2.81-.95-4.18-1.64-6.89.8-.83,1.09-2.36.82-4.54-.22-1.81-.61-2.65-1.15-2.56-.25,0-.41.27-.49.7a14.3,14.3,0,0,0-.09,2.41,69.23,69.23,0,0,1-.14,7,9,9,0,0,1-1,3.56,2.68,2.68,0,0,1-2.1,1.57c-1.33.11-2.48-.91-3.5-3a26.13,26.13,0,0,1-2.1-8.18C491.54,310.29,492.2,306.37,494.58,304.34Z"/><path class="cls-10" d="M90.72,355.39c.42,3.79.66,5.67,1.19,9.39-2.2,0-4.09-1.16-5.65-3.57a22.86,22.86,0,0,1-3.12-9.55c-.6-4.76-.21-8.78,1.1-11.9s3.39-4.79,6.17-5,5.08,1,7,3.47,3.13,6,3.71,10.64c.54,4.29.4,7.63-.5,10.14a7.46,7.46,0,0,1-4.4,4.88c-.76-3.68-1.11-5.54-1.76-9.32a2.86,2.86,0,0,0,2.35-1.68,5.79,5.79,0,0,0,.38-3.1c-.4-3.19-2.27-4.6-5.68-4.16-1.9.24-3.15.84-3.74,1.8a5.8,5.8,0,0,0-.58,3.79C87.56,354,88.75,355.38,90.72,355.39Z"/><path class="cls-10" d="M90.16,387.36c1.15-1.13,1.73-1.69,2.9-2.8-.84-3.39-1.24-5.11-2-8.58-1.52-.44-2.28-.66-3.8-1.12-.68-3.3-1-5-1.6-8.33,7.67,2.72,11.51,3.89,19.18,5.92.85,4,1.31,5.92,2.29,9.78-5.84,5.77-8.7,8.78-14.27,15C91.72,393.34,91.18,391.37,90.16,387.36Zm5-10.68c.46,2.06.69,3.08,1.18,5.11,1.74-1.58,2.61-2.36,4.36-3.9C98.51,377.43,97.4,377.19,95.18,376.68Z"/><path class="cls-10" d="M103.38,426.45c-1.66-3.86-2.45-5.82-4-9.81,1.84-2.82,2.78-4.21,4.69-6.95-.41-1.12-.61-1.69-1-2.82l-6.32,2.56c-1.28-3.68-1.89-5.55-3-9.33l16.73-6c1.84,6,2.84,8.91,5,14.61a18.83,18.83,0,0,1,1.56,7.86c-.16,2.12-.93,3.54-2.35,4.24a3.79,3.79,0,0,1-2.86.24c-1-.29-2.16-1.29-3.51-3C106.28,421.33,105.3,423,103.38,426.45Zm3.25-21c.53,1.51.79,2.26,1.34,3.75a7.18,7.18,0,0,0,1.37,2.45,1.3,1.3,0,0,0,1.54.47c1-.46,1.14-1.77.33-4-.58-1.58-.86-2.38-1.42-4Z"/><path class="cls-10" d="M117.53,454.32c-2-3.46-3-5.23-5-8.83,1.53-3,2.31-4.42,3.9-7.32l-1.28-2.54-6,3.36c-1.65-3.33-2.46-5-4-8.45l15.92-8.2c2.45,5.43,3.75,8.07,6.48,13.21a17.31,17.31,0,0,1,2.38,7.31c.07,2.06-.54,3.52-1.87,4.4a4,4,0,0,1-2.81.65,8,8,0,0,1-3.8-2.41C119.85,449,119.06,450.76,117.53,454.32Zm1-20.58c.67,1.37,1,2,1.71,3.38a6.5,6.5,0,0,0,1.62,2.15,1.29,1.29,0,0,0,1.57.23c1-.59.94-1.86-.09-3.85-.74-1.42-1.11-2.14-1.83-3.59Z"/><path class="cls-10" d="M135.44,473.34l-3.35,2.73A197.55,197.55,0,0,1,119.74,458l14.89-10.15a180.88,180.88,0,0,0,11.46,16.79l-3.23,2.64c-3-3.92-4.39-5.93-7.16-10.07l-2.11,1.55c2.27,3.38,3.43,5,5.82,8.27l-3.13,2.51c-2.43-3.29-3.61-5-5.91-8.41L128,462.87C130.87,467.17,132.36,469.26,135.44,473.34Z"/><path class="cls-10" d="M150.8,497.89c-2.67-2.74-4-4.15-6.55-7,.91-3.14,1.38-4.71,2.37-7.81-.7-.81-1.05-1.21-1.74-2l-5.14,4.63c-2.25-2.67-3.36-4-5.52-6.82l13.85-11.63c3.42,4.39,5.19,6.52,8.84,10.63a15.49,15.49,0,0,1,3.73,6.23,4.59,4.59,0,0,1-1,4.58,4.19,4.19,0,0,1-2.6,1.3,7.41,7.41,0,0,1-4.15-1.3C152,492.32,151.59,494.17,150.8,497.89Zm-3-19.46c.92,1.1,1.39,1.64,2.32,2.72a5.86,5.86,0,0,0,2,1.59,1.33,1.33,0,0,0,1.56-.18c.84-.8.56-2-.83-3.56-1-1.15-1.49-1.72-2.47-2.88Z"/><path class="cls-10" d="M164.94,511.25c.44-1.51.67-2.26,1.13-3.76-2.21-1.95-3.3-2.94-5.45-5-1.44.62-2.16.92-3.61,1.51-2-1.92-3-2.9-5-4.89,7.47-2.76,11.14-4.26,18.33-7.48,2.46,2.31,3.7,3.44,6.23,5.63-2.22,7.7-3.22,11.61-5,19.52C168.9,514.65,167.56,513.53,164.94,511.25Zm-.63-10.7c1.28,1.19,1.93,1.78,3.23,2.94.72-2.18,1.09-3.27,1.85-5.43C167.37,499.07,166.35,499.57,164.31,500.55Z"/><path class="cls-10" d="M198.77,514.17l-10,15.24c-2.8-1.86-4.19-2.82-6.94-4.79l10.46-14.9C194.87,511.55,196.16,512.44,198.77,514.17Z"/><path class="cls-10" d="M213.11,543.56c-2.43-1.23-3.63-1.86-6-3.16-1.1-4.26-1.6-6.39-2.49-10.63a25.41,25.41,0,0,1-.5-4.67,9.59,9.59,0,0,1-1,2.9c-1.8,3-2.69,4.55-4.49,7.59-2.34-1.4-3.5-2.11-5.81-3.58l9.68-15.42c2.49,1.59,3.75,2.36,6.29,3.85.69,3.51,1.08,5.26,1.91,8.77a27.66,27.66,0,0,1,.76,4.4,18.06,18.06,0,0,1,1.73-4.49c1-1.9,1.53-2.85,2.56-4.74,2.23,1.2,3.35,1.79,5.61,2.93Z"/><path class="cls-10" d="M235.49,546.18c-3.2-1.27-4.79-1.94-8-3.34l-2.78,6.23c-3-1.31-4.45-2-7.39-3.41,3.18-6.56,4.76-9.84,7.93-16.39,6.6,3.17,10,4.63,16.77,7.26l-1.58,4c-4.07-1.58-6.09-2.41-10.08-4.18l-1.21,2.71c3.11,1.37,4.68,2,7.83,3.29C236.41,543.91,236.11,544.67,235.49,546.18Z"/><path class="cls-10" d="M248.67,558.48a14.8,14.8,0,0,1-8-5.43,7.81,7.81,0,0,1-.9-7.61,8.54,8.54,0,0,1,5.47-5.16c2.65-.92,5.73-.76,9.33.4a14.74,14.74,0,0,1,7.51,4.89,8.44,8.44,0,0,1-3.82,13.09A14.57,14.57,0,0,1,248.67,558.48Zm1.26-3.94a3.41,3.41,0,0,0,3.22-.28q1.23-.9,2.21-4c.95-3,.27-4.87-2-5.6-2.46-.79-4.27.48-5.45,3.89C246.8,551.71,247.47,553.74,249.93,554.54Z"/><path class="cls-10" d="M288.19,567.58c-3.65-.57-5.47-.89-9.1-1.58-1-3-1.5-4.55-2.43-7.59l-2.49-.53c-.62,2.71-.92,4.07-1.53,6.79-3.26-.72-4.88-1.1-8.11-1.92,1.83-7,2.74-10.57,4.57-17.61,5.11,1.29,7.68,1.87,12.85,2.88a13.74,13.74,0,0,1,6.41,2.66,4.46,4.46,0,0,1,.43,6.82,7.59,7.59,0,0,1-4,1.48C286.07,562.43,286.75,564.15,288.19,567.58ZM275,554.08c1.33.29,2,.44,3.33.71a5.55,5.55,0,0,0,2.46,0,1.41,1.41,0,0,0,1.15-1.09c.22-1.15-.66-1.9-2.63-2.3l-3.55-.75C275.48,552.05,275.33,552.73,275,554.08Z"/><path class="cls-10" d="M322,552.45c-.21,7.27-.31,10.9-.52,18.17-3.09-.09-4.64-.15-7.73-.33.31-5.19.46-7.78.77-13-2.21,5.08-3.37,7.61-5.78,12.64-2.1-.16-3.16-.25-5.27-.45-1.56-5.38-2.29-8.07-3.63-13.46L298.28,569c-2.48-.28-3.72-.44-6.2-.79,1.05-7.2,1.57-10.8,2.62-18,4,.57,6,.81,10,1.2,1.07,4,1.63,6,2.81,9.95,1.78-3.72,2.65-5.59,4.31-9.35C315.9,552.24,317.93,552.34,322,552.45Z"/><path class="cls-10" d="M341.16,570.43c-.68-1.4-1-2.11-1.68-3.51-2.87.11-4.3.15-7.17.19-.62,1.45-.94,2.17-1.58,3.6-2.7,0-4.05,0-6.76,0,3.49-7.21,5.11-10.85,8.12-18.16,3.27,0,4.91-.1,8.18-.25,3.51,7.12,5.39,10.64,9.38,17.62C346.26,570.16,344.56,570.27,341.16,570.43Zm-7.53-7.31c1.7,0,2.56,0,4.26-.11-.93-2.08-1.39-3.12-2.28-5.21C334.84,559.93,334.44,561,333.63,563.12Z"/><path class="cls-10" d="M359.9,554.94c.72,5.49,1.07,8.23,1.79,13.72-3.14.39-4.71.56-7.85.86-.54-5.5-.81-8.25-1.36-13.76-2.12.21-3.18.3-5.3.45-.13-1.73-.2-2.6-.33-4.34,7.09-.52,10.63-.91,17.67-2l.65,4.31C363.07,554.53,362,554.68,359.9,554.94Z"/><path class="cls-10" d="M374.31,548.26l3.5,17.85c-3.28.62-4.92.91-8.21,1.42-1.16-7.18-1.75-10.77-2.91-17.95C369.75,549.1,371.27,548.84,374.31,548.26Z"/><path class="cls-10" d="M395.11,555c2.9-.66,4.34-1,7.22-1.75a6.77,6.77,0,0,1-2,5.94,14.49,14.49,0,0,1-7,3.74,14.17,14.17,0,0,1-9.24-.33,7.85,7.85,0,0,1-4.69-5.93A8.77,8.77,0,0,1,381,549.3c1.59-2.14,4.08-3.6,7.54-4.48,3.23-.82,5.87-.87,8-.09a7.47,7.47,0,0,1,4.51,4.2c-2.82,1-4.23,1.43-7.08,2.32a3.25,3.25,0,0,0-1.65-2.29,3.58,3.58,0,0,0-2.46-.2c-2.4.61-3.19,2.61-2.35,6,.48,1.93,1.12,3.16,1.94,3.69a3.68,3.68,0,0,0,3,.35C394.5,558.3,395.4,557,395.11,555Z"/><path class="cls-10" d="M420.91,553.93c-1.09-1.12-1.63-1.69-2.71-2.81-2.69,1-4,1.48-6.76,2.41-.13,1.57-.21,2.35-.36,3.91-2.57.86-3.86,1.27-6.45,2.06,1.05-7.93,1.45-11.89,2-19.77,3.1-1.06,4.64-1.62,7.7-2.78,5.59,5.66,8.48,8.43,14.48,13.81C425.68,552.08,424.1,552.71,420.91,553.93Zm-9.47-4.6c1.61-.56,2.42-.85,4-1.44-1.54-1.68-2.3-2.53-3.81-4.23C411.59,545.92,411.54,547.06,411.44,549.33Z"/><path class="cls-10" d="M453.74,538.56c-1.24-.95-1.86-1.43-3.08-2.39-2.53,1.4-3.8,2.08-6.36,3.4.08,1.57.12,2.36.19,3.94-2.43,1.22-3.65,1.82-6.1,3-.08-8-.24-12-.8-19.91,2.92-1.51,4.37-2.29,7.24-3.9,6.33,4.79,9.6,7.11,16.3,11.55C458.2,536,456.72,536.88,453.74,538.56Zm-10-3.16c1.52-.79,2.28-1.2,3.78-2-1.76-1.44-2.64-2.17-4.37-3.64C443.37,532,443.48,533.13,443.7,535.4Z"/><path class="cls-10" d="M471.16,519.28c2.52-1.65,3.77-2.49,6.24-4.22a6.9,6.9,0,0,1,.08,6.35,14.82,14.82,0,0,1-5.35,6,14.06,14.06,0,0,1-8.84,2.9,7.71,7.71,0,0,1-6.4-4,8.84,8.84,0,0,1-1-7.52c.79-2.57,2.66-4.82,5.64-6.87,2.78-1.91,5.26-2.89,7.51-2.91a7.35,7.35,0,0,1,5.65,2.39c-2.34,1.93-3.52,2.87-5.91,4.71a3.24,3.24,0,0,0-2.33-1.59,3.67,3.67,0,0,0-2.39.68c-2.06,1.42-2.14,3.59-.2,6.55,1.08,1.66,2.1,2.6,3.05,2.81a3.66,3.66,0,0,0,3-.72C471.67,522.62,472.1,521.08,471.16,519.28Z"/><path class="cls-10" d="M502.41,502.18c-2.72,2.67-4.11,4-6.93,6.5-3-1-4.53-1.55-7.5-2.65l-2,1.7,4.4,5.38c-2.6,2.2-3.91,3.28-6.58,5.37-4.42-5.78-6.63-8.67-11-14.46,4.21-3.31,6.28-5,10.31-8.63a14.65,14.65,0,0,1,6.1-3.63,4.32,4.32,0,0,1,4.44,1.11,4.44,4.44,0,0,1,1.21,2.69,7.94,7.94,0,0,1-1.35,4.21C497,500.8,498.81,501.28,502.41,502.18Zm-18.88,2.54c1.06-.9,1.59-1.36,2.64-2.28a5.67,5.67,0,0,0,1.57-2,1.43,1.43,0,0,0-.15-1.6c-.76-.88-1.9-.62-3.45.74-1.12,1-1.68,1.46-2.81,2.42Z"/><path class="cls-10" d="M516.3,480.65l3.25,2.86a192.32,192.32,0,0,1-14.25,15.81l-12.57-13.1A176.84,176.84,0,0,0,506,471.54l3.14,2.77c-3.09,3.76-4.68,5.59-7.94,9.14l1.88,1.83c2.67-2.9,4-4.38,6.52-7.43l3,2.69c-2.59,3.09-3.92,4.6-6.63,7.55l2.13,2.07C511.44,486.47,513.09,484.57,516.3,480.65Z"/><path class="cls-10" d="M521.73,480.81,508,469c2.56-3.22,3.81-4.86,6.24-8.24,2.64-3.66,5.24-6,7.95-6.84s5.05-.7,7,.65a7.82,7.82,0,0,1,3.29,7,17.51,17.51,0,0,1-3.68,9.86C526,475.31,524.63,477.17,521.73,480.81Zm2.12-9.6,1.33-1.84a5.3,5.3,0,0,0,1.05-3.8,5.19,5.19,0,0,0-5.5-4.39,4.63,4.63,0,0,0-3.27,2.14l-1.28,1.77Z"/><path class="cls-10" d="M528,439.17l15.27,9.49c-1.78,3.2-2.7,4.78-4.58,7.88L523.7,446.49C525.44,443.61,526.29,442.15,528,439.17Z"/><path class="cls-10" d="M539.18,426.55l12.05,6.36c-1.5,3.23-2.27,4.81-3.86,7.95l-11.84-6.8c-1.07,2.11-1.62,3.16-2.74,5.22l-3.68-2.23a190.09,190.09,0,0,0,8.7-17.9l3.84,1.9C540.68,423.27,540.19,424.37,539.18,426.55Z"/><path class="cls-10" d="M560.49,410.08c-1.54.15-2.31.22-3.84.34-1.13,3.14-1.72,4.7-2.93,7.77,1,1.27,1.51,1.91,2.51,3.2-1.17,2.87-1.77,4.29-3,7.1-4.87-6.7-7.38-9.95-12.56-16.25,1.38-3.5,2.05-5.28,3.31-8.89,7.83-.79,11.76-1.34,19.64-2.78C562.43,404.43,561.8,406.33,560.49,410.08Zm-9.74,5c.71-1.83,1.06-2.75,1.74-4.62-2.24.13-3.37.17-5.6.25C548.44,412.45,549.22,413.33,550.75,415.09Z"/><path class="cls-10" d="M564.49,397.72l-16.79-5.86c1.33-4.47,1.94-6.74,3.09-11.36,1.24-5,2.9-8.64,5.13-10.83s4.48-3.11,6.74-2.61c2.58.57,4.42,2.5,5.43,5.83a22.69,22.69,0,0,1-.13,12C566.68,390.11,566,392.68,564.49,397.72Zm-1.23-10.86c.26-1,.38-1.5.63-2.51a6.81,6.81,0,0,0-.28-4.44,4.44,4.44,0,0,0-3.07-2.59,4.31,4.31,0,0,0-3.55.58,5.8,5.8,0,0,0-2.34,3.74c-.24,1-.36,1.45-.61,2.41Z"/><path class="cls-10" d="M574.68,346.66c-1.47.62-2.2.93-3.68,1.53-.43,3.72-.68,5.55-1.22,9.19,1.26,1.06,1.88,1.59,3.12,2.67-.53,3.41-.81,5.1-1.43,8.45-6.15-5.66-9.29-8.37-15.66-13.53.61-4.16.88-6.26,1.36-10.52a202.5,202.5,0,0,0,18.56-9C575.38,340,575.17,342.23,574.68,346.66ZM566.24,355c.31-2.17.45-3.26.72-5.46-2.16.81-3.24,1.2-5.41,1.95C563.43,352.85,564.37,353.55,566.24,355Z"/><path class="cls-10" d="M190,586.49l-3.51,3.93c-7-4-10.43-6.11-17.08-10.63l16-14.92c2.62,1.78,3.95,2.64,6.63,4.33l-11.52,11.63C184.28,583.18,186.18,584.31,190,586.49Z"/><path class="cls-10" d="M203.31,599.15c.4-1.61.61-2.41,1-4-2.72-1.32-4.07-2-6.76-3.38-1.66,1-2.49,1.47-4.18,2.44-2.53-1.34-3.79-2-6.28-3.43,8.78-4.67,13-7.12,21.25-12.23,3,1.55,4.49,2.3,7.53,3.74a198.55,198.55,0,0,0-4.38,20.61C208.21,601.45,206.57,600.7,203.31,599.15Zm-1.5-10.33c1.59.82,2.39,1.22,4,2,.69-2.33,1-3.5,1.8-5.81C205.31,586.55,204.15,587.31,201.81,588.82Z"/><path class="cls-10" d="M236,604.43c-1.4,2.63-2.11,3.94-3.52,6.56-3.41-1.16-5.11-1.77-8.48-3l10.53-17.75c4.16,1.57,6.26,2.31,10.5,3.69a21.56,21.56,0,0,1,5.73,2.57,6.49,6.49,0,0,1,2.39,3,4.59,4.59,0,0,1-.14,3.49,6.25,6.25,0,0,1-4.54,3.51,14.29,14.29,0,0,1-7.86-.55C238.8,605.36,237.88,605.06,236,604.43Zm2-3.91,2.65.89c2.35.77,3.83.52,4.43-.69s-.22-2-2.35-2.74c-1.14-.37-1.72-.56-2.86-1Z"/><path class="cls-10" d="M264.45,619.83c-.13-1.63-.19-2.45-.3-4.08-3-.66-4.47-1-7.44-1.76-1.25,1.31-1.88,2-3.15,3.26-2.81-.72-4.21-1.1-7-1.89,6.77-6.41,10-9.7,16.08-16.41,3.3.83,5,1.22,8.29,1.94a199.67,199.67,0,0,0,2.48,20.74C269.82,621,268,620.6,264.45,619.83Zm-4.71-9.58c1.76.43,2.63.64,4.4,1-.1-2.39-.13-3.58-.17-6C262.31,607.31,261.46,608.29,259.74,610.25Z"/><path class="cls-10" d="M299.09,620.57c-.29,1.84-.44,2.76-.73,4.6-9.69-1-14.53-1.65-24.09-3.39l1.05-3.65c6.27-3.52,9.26-5.36,15-9.17-4.38-.6-6.56-1-10.91-1.72l1.25-4.44c8.12,1.45,12.21,2,20.44,2.86-.24,1.51-.36,2.26-.61,3.78-5.32,4-8.11,5.9-14,9.6C291.52,619.76,294,620.07,299.09,620.57Z"/><path class="cls-10" d="M321.89,616.93c-.07,1.81-.11,2.71-.18,4.51-4.24-.1-6.36-.19-10.59-.44.17-1.8.26-2.7.43-4.5C315.68,616.74,317.75,616.83,321.89,616.93Z"/><path class="cls-10" d="M335.66,626.63c-.26-7.85-.39-11.78-.66-19.62,5.36-.12,8-.24,13.37-.61,2.78-.19,4.86.15,6.29,1.07a5,5,0,0,1,2.47,3.37,3.52,3.52,0,0,1-.74,2.75,6,6,0,0,1-3.23,1.92c3.66.32,5.7,1.63,6.09,4a4.72,4.72,0,0,1-1.36,4.06c-1.15,1.27-3.92,2.11-8.29,2.4C344,626.39,341.24,626.51,335.66,626.63ZM343,614.26c1.57-.08,2.35-.12,3.91-.22a3,3,0,0,0,2-.66,1.45,1.45,0,0,0,.47-1.18c-.12-1.09-1.1-1.56-2.94-1.45l-3.7.2Zm.59,7.72c1.71-.08,2.57-.13,4.28-.24a3.81,3.81,0,0,0,2.27-.69,1.39,1.39,0,0,0,.6-1.26,1.67,1.67,0,0,0-.85-1.19,4.6,4.6,0,0,0-2.66-.4c-1.56.1-2.35.14-3.91.22C343.45,619.84,343.5,620.55,343.61,622Z"/><path class="cls-10" d="M376.43,623.36a16.87,16.87,0,0,1-10.5-1.34,9.09,9.09,0,0,1-5.07-6.84,8.73,8.73,0,0,1,2.13-7.59c1.88-2.16,4.73-3.5,8.63-4.1a16.08,16.08,0,0,1,9.58,1.11,10.16,10.16,0,0,1,5.68,6.32,7.87,7.87,0,0,1-1.41,8C383.51,621.21,380.47,622.73,376.43,623.36ZM375.31,619a3.32,3.32,0,0,0,2.81-1.81q.61-1.47-.32-4.92c-.9-3.34-2.58-4.79-5.06-4.41-2.68.42-3.59,2.52-2.74,6.35C370.8,617.8,372.58,619.41,375.31,619Z"/><path class="cls-10" d="M411.4,610.31l2.07,4.52c-7.82,2.28-11.78,3.28-19.77,5l-6.48-18.94c3.15-.68,4.72-1,7.84-1.82,2.22,5.65,3.33,8.48,5.54,14.14C405,612.14,407.11,611.55,411.4,610.31Z"/><path class="cls-10" d="M415.32,593.16c3.85,7.23,5.77,10.85,9.61,18.08-3.37,1.14-5.07,1.68-8.48,2.71-3.5-7.34-5.25-11-8.76-18.35C410.76,594.67,412.29,594.18,415.32,593.16Z"/><path class="cls-10" d="M440.42,583.15a198.41,198.41,0,0,1,4.23,20.6c-3.32,1.41-5,2.09-8.37,3.39-7.8-5.71-11.54-8.67-18.68-14.76,3.18-1.11,4.76-1.69,7.9-2.9,3.88,3.26,5.87,4.87,9.92,8,.64.45,1.24.91,1.8,1.36-1-5.25-1.53-7.86-2.77-13C436.85,584.79,438.05,584.25,440.42,583.15Z"/><path class="cls-10" d="M449.7,578.59l13.44,16.46c-3.13,1.63-4.72,2.41-7.91,3.94l-12.65-16.86C445.46,580.77,446.88,580.06,449.7,578.59Z"/><path class="cls-10" d="M481.23,584.71c-1.75-.87-2.62-1.31-4.35-2.2-2.56,1.59-3.86,2.36-6.47,3.87.55,1.59.82,2.39,1.35,4-2.49,1.41-3.74,2.1-6.27,3.45a208.63,208.63,0,0,0-6.7-20.2c2.91-1.68,4.34-2.54,7.18-4.33,8.84,4.45,13.41,6.55,22.78,10.5C485.78,581.81,484.28,582.8,481.23,584.71Zm-12.74-2.53c1.54-.9,2.31-1.35,3.83-2.28-2.5-1.34-3.74-2-6.2-3.4C467.1,578.76,467.57,579.9,468.49,582.18Z"/></g></g></svg>